<svg xmlns="http://www.w3.org/2000/svg" width="536.40002" height="160.39999" version="1.2"><path d="M12.4 114 0 115.5v7.3h79.9l5.3-34-9.2-1.4-8.8 25.2-38.7 1.4V20.6l14.8-1.7v-7.5H.3v7.5l12.1 1.7zm99.8-89.4h.2c7.2 0 11.1-4.3 11.1-11.1 0-4.9-2.6-9.6-9.9-9.6-6.9 0-11 4.8-11 11.1 0 5.3 2.9 9.6 9.6 9.6zm-6 89.6-12.1 1.4v7.3h39.7v-7.3l-12-1.3V40.4l-3.4-2.7h-.3l-23.3 2.8v8l11.4 2.7zm31.3-105 12.3 1.6v108c1.9 1.8 13.9 5.7 29.2 5.7 26.9 0 43.5-20.5 43.5-46.2 0-29.1-15.6-40.9-32.7-40.9-11.1 0-19.5 5.1-24.6 10V2.3L161.8 0h-.3l-24 2.9zM183.7 48c12.1 0 22.2 9.5 22 32.4-.4 24.5-11.1 36.1-25.6 36.1-6.8 0-13.5-1.7-14.9-4.7V56.6c3.2-3.5 10.1-8.6 18.5-8.6zm52.2 74.9h45.8v-7.2l-19-1.2v-54c4.2-3 11.7-7.7 23.1-7.7 4.2 0 7.3 1.2 8.5 2.1V38.1c-1.2-.4-2.7-.7-4.9-.7-16 0-27 14.2-28.8 17.4h-.4l.4-11.7v-2.7l-3.3-2.7h-.3l-20.7 2.7v8.1l10.8 2.7v63.4l-11.2.9zm68.6-22.5c0 16.4 11.6 24.2 25.1 24.2 12.6 0 22-8.2 25.8-12v4.9c0 6 2 6.9 7.2 6.9 5.1 0 12.3-1.3 15.6-2.2v-6.6h-8.9V67.4c0-21.3-7.2-29.5-28.4-29.5-15 0-30.2 8.5-33.2 11.2l3.7 7.8c4.8-2.5 14.1-7.5 25.8-7.5 13.7 0 17.2 5.4 17.2 18.9v4.2c-25.9.5-49.9 7.7-49.9 27.9zm31.5 14c-8.3 0-14.6-4.5-14.6-15.8 0-10.3 10.3-18.1 33-18.1v25.8c-5.3 4.2-13 8.1-18.4 8.1zm52.9 8.6h45.8v-7.2l-19-1.3v-54c4.2-3 11.7-7.6 23.1-7.6 4.2 0 7.3 1.2 8.5 2.1V38.2c-1.2-.5-2.7-.8-4.9-.8-16 0-27 14.3-28.8 17.4h-.4l.4-11.7v-2.7l-3.3-2.7h-.3l-20.7 2.7v8.2l10.8 2.6v63.5l-11.2.9zm80.8 37.4c17.4 0 24.1-12 33.3-35.1 2.1-5 10.5-29.4 25.9-76.7l7.5-1.8v-7.1h-30.1v7.1l10 1.8L503 92.7l-6.4 22.1-6.9-21.9-14.8-44.3 11.6-1.8v-7.1h-36.1v7.1l6.8 1.9 28.5 74.3h7.2c-7.3 20.3-14.5 24.3-23.2 24.3-3 0-7.3-.4-8.5-1.2v13.1c1.5.7 5.4 1.2 8.5 1.2z" style="fill:#010101"/></svg>